<?xml version="1.0" encoding="utf-8"?>
<!-- Generator: Adobe Illustrator 16.0.0, SVG Export Plug-In . SVG Version: 6.00 Build 0)  -->
<!DOCTYPE svg PUBLIC "-//W3C//DTD SVG 1.1//EN" "http://www.w3.org/Graphics/SVG/1.1/DTD/svg11.dtd">
<svg version="1.1" id="Layer_1" xmlns="http://www.w3.org/2000/svg" xmlns:xlink="http://www.w3.org/1999/xlink" x="0px" y="0px"
	 width="462px" height="192px" viewBox="0 0 462 192" enable-background="new 0 0 462 192" xml:space="preserve">
<path fill="#FFFFFF" d="M3.5,5.83h438.346v75.981c-0.428-0.203-1.271-0.599-1.689-0.802c-1.935,0.618-3.86,1.254-5.749,1.973
	c-3.947,1.521-7.687,3.457-11.499,5.245c-0.732-0.092-2.183-0.276-2.913-0.369c3.634-2.581,6.518-6.02,8.131-10.131
	c-0.692-0.157-2.068-0.461-2.761-0.618c-1.338-0.322-2.666-0.655-3.985-0.978c-4.906,1.955-9.041,5.495-11.87,9.818
	c-1.527,2.305-2.248,5.024-3.774,7.32c-1.575,1.871-3.302,3.641-4.744,5.614c1.869-0.857,3.691-1.814,5.568-2.683
	c2.971,0.729,6.319,1.761,9.3,1.024c2.513-3.394,6.85-4.601,10.257-6.915c0.341,0.046,1.023,0.147,1.375,0.193l0.74,0.341
	l0.521,0.581c0.939,1.374-1.565,2.111-2.438,2.682c-2.182,0.95-4.422,1.789-6.527,2.922c3.775-0.635,8.369-1.179,10.664-4.572
	c0.864-1.337-0.617-2.674-1.007-3.909c4.412-1.245,8.132-4.259,12.401-5.521v99.803H3.5V5.83z"/>
<path fill="#444445" d="M125.896,31.96c9.97-4.77,20.99-6.7,31.89-7.92c15.99-1.48,32.34-1.46,48.05,2.23
	c6.76,1.81,14.24,4.55,17.82,11.03c3.278,6.8-0.302,14.43-4.211,20.14c-8.271,12.51-23.209,17.54-36.991,21.27
	c32.952,4.15,66.18,4.92,99.282,7.08c23.358,1.62,46.829,2.8,69.959,6.67c12.09,1.83,23.489,6.41,35.069,10.12
	c-5.12-1.49-10.27-2.891-15.392-4.38c-13.127-4.37-27.037-5.27-40.688-6.89c-32.83-3.24-65.811-4.48-98.73-6.31
	c-15.738-0.93-31.52-1.66-47.158-3.73c-3.36-0.37-6.72-1.41-10.12-0.96c-30.89,5.86-62.48,7.21-93.87,6.63
	c-7.31-0.56-14.64-0.49-21.97-0.78c-11.71-1.03-23.45-1.86-35.09-3.58c11,1.11,22.02,2.17,33.06,2.74
	c8.68-0.03,17.35,0.53,26.02,0.75c23.99-0.42,48.01-1.43,71.83-4.48c5.27-1.02,10.76-1.12,15.88-2.8
	c-9.8-2.55-19.28-6.18-28.52-10.3c-7.83-3.67-15.73-7.74-21.92-13.92c-3.09-3.22-5.98-7.71-4.72-12.36
	C116.886,37.26,121.526,34.19,125.896,31.96z"/>
<path fill="#FFFFFF" d="M168.157,26.31c12.97-0.49,26.21-0.19,38.76,3.5c5.15,1.73,10.939,4.21,13.208,9.56
	c2.08,6.1-1.077,12.34-4.479,17.28c-8.58,12.39-23.7,17.48-37.71,20.8c-3.89,0.12-7.63-1.45-11.34-2.44
	c-12.59-4.34-25.18-9.2-36.3-16.66c-4.37-3.1-9.1-6.96-10.03-12.56c-0.28-5.58,5.02-9.07,9.41-11.31
	C141.657,28.83,155.076,27.16,168.157,26.31z"/>
<path fill="#444445" d="M420.275,82.09c1.392,0.35,2.79,0.71,4.2,1.06c-5.89-0.75-10.13,3.74-13.86,7.55
	c-3.448,3.56-4.398,8.63-5.96,13.159c-1.979,0.941-3.898,1.979-5.868,2.91c1.52-2.141,3.34-4.061,5-6.09
	c1.608-2.49,2.368-5.439,3.979-7.939C410.746,88.05,415.105,84.21,420.275,82.09z"/>
<path fill="#AAAAA9" d="M410.615,90.7c3.73-3.81,7.972-8.3,13.86-7.55c0.73,0.17,2.18,0.5,2.91,0.67c-1.7,4.46-4.74,8.19-8.57,10.99
	c0.771,0.1,2.3,0.3,3.07,0.4c-1.25,0.57-2.49,1.16-3.72,1.761c6.6-0.861,12.12-4.871,18.229-7.201c-0.6-0.06-1.79-0.19-2.39-0.25
	c1.99-0.78,4.02-1.47,6.06-2.14c0.44,0.22,1.33,0.65,1.78,0.87v1.32c-4.5,1.37-8.42,4.64-13.07,5.99
	c-1.188,0.6-2.43,1.15-3.51,1.911c-3.59,2.51-8.16,3.819-10.81,7.5c-3.142,0.799-6.671-0.32-9.802-1.111
	C406.216,99.33,407.166,94.26,410.615,90.7z"/>
<path fill="#444445" d="M421.886,95.21c4.02-1.94,7.96-4.04,12.12-5.69c0.6,0.06,1.79,0.19,2.39,0.25
	c-6.108,2.33-11.63,6.34-18.229,7.201C419.396,96.37,420.636,95.78,421.886,95.21z"/>
<path fill="#444445" d="M425.266,97.471c1.08-0.761,2.32-1.311,3.51-1.911c0.41,1.34,1.972,2.79,1.062,4.241
	c-2.42,3.68-7.26,4.27-11.24,4.959c2.22-1.229,4.58-2.141,6.88-3.171c0.92-0.62,3.562-1.42,2.57-2.909l-0.55-0.631l-0.78-0.369
	C426.346,97.63,425.626,97.52,425.266,97.471z"/>
<text transform="matrix(1.7237 0 0 1 24.3125 160.6953)" fill="#383838" font-family="'Leelawadee'" font-size="55.0965">VL</text>
<text transform="matrix(1.7237 0 0 1 24.3125 160.6953)" fill="none" stroke="#000000" stroke-width="0.5" stroke-miterlimit="10" font-family="'Leelawadee'" font-size="55.0965">VL</text>
<text transform="matrix(1.7237 0 0 1 128 160.6953)" fill="#383838" font-family="'Leelawadee'" font-size="33.9851"> FLYFISHING</text>
<text transform="matrix(1.7237 0 0 1 128 160.6953)" fill="none" stroke="#000000" stroke-width="0.5" stroke-miterlimit="10" font-family="'Leelawadee'" font-size="33.9851"> FLYFISHING</text>
</svg>
